<?xml version="1.0" encoding="utf-8"?>
<!-- Generator: Adobe Illustrator 19.1.0, SVG Export Plug-In . SVG Version: 6.00 Build 0)  -->
<svg version="1.1" id="Layer_1" xmlns="http://www.w3.org/2000/svg" xmlns:xlink="http://www.w3.org/1999/xlink" x="0px" y="0px"
	 viewBox="0 0 1200 1200" style="enable-background:new 0 0 1200 1200;" xml:space="preserve">
<style type="text/css">
	.st0{fill:none;}
	.st1{enable-background:new    ;}
	.st2{clip-path:url(#SVGID_2_);}
	.st3{fill:#15699E;}
	.st4{font-family:'Palatino-Roman';}
	.st5{font-size:52.7004px;}
</style>
<rect id="_x3C_Slice_x3E__2_" x="5" y="-4" class="st0" width="1109.8" height="1161.4"/>
<g id="Compass_2_">
	<g>
		<g class="st1">
			<defs>
				<rect id="SVGID_1_" x="102.8" y="24.6" class="st1" width="928.9" height="1110"/>
			</defs>
			<clipPath id="SVGID_2_">
				<use xlink:href="#SVGID_1_"  style="overflow:visible;"/>
			</clipPath>
			<g class="st2">
				<g>
					<g>
						<g>
							<path class="st3" d="M211.1,962.2c-30.6,34.2-60.5,69.1-90,104.3c-6,7.2-12.1,14.5-18.1,21.7c-0.5,0.7-0.2,6.8-0.2,6.8
								c0,0,0,0,0,0c-0.1,5.5-0.1,10.9-0.1,16.4s0,10.9,0.1,16.4c0,1.2,0.8,6,0.2,6.8c39.8-47.9,80.1-95.4,121.9-141.5
								c-0.1,0-0.2,0-0.4,0c-2.2,0-6.9-1.8-8.4-2.2c-2.5-0.6-4.3-0.7-4.8-3.2c0,0.1,0,0.2,0,0.3c0-0.2,0-0.3,0-0.5
								c0-0.1,0-0.2-0.1-0.3c-1-7.2-0.2-15.1-0.2-22.3C211.1,964,211.1,963.1,211.1,962.2 M729.7,541.6
								c-37.8,21.7-75,44.6-111.5,68.6c-63,41.4-123.9,86.2-182.2,134c-58.4,47.8-113.4,99.4-165.6,153.9
								c-7.8,8.1-15.5,16.3-23.2,24.6c0,4.1,0,8.2-0.1,12.3c0,0,0,0,0,0c0,0,0.3,6.5-0.2,6.8c-1.9,1.5-6.3,3.7-7.8,5.7
								c-1.5,2-1.9,6.2-2.7,8.6c-1,3.2-1.9,6.3-2.9,9.5c-1.8,6-3.6,12-5.4,18.1c-0.6,1.9-1.2,3.8-1.7,5.7c-0.1,0.4-0.4,2-0.7,2.9
								c8.4-9.2,16.9-18.4,25.4-27.5c51.6-55.2,105.9-108,163.7-156.6c57.7-48.6,118.1-94.1,180.6-136.3
								c51.6-34.9,104.8-67.6,159.2-97.9c-0.3-0.5-0.6-1-1-1.5c-5.2-8.1-11-15.8-17.2-23.2C734.4,546.5,732.2,543.9,729.7,541.6
								 M1031.4,397.8c-73.8,28.6-146,61-216.3,97.2c-8.4,4.3-16.7,8.7-25.1,13.1c5.1,12.8,10.1,25.5,15.2,38.3
								c64.7-33.8,131-64.3,198.7-91.5c9.1-3.7,18.3-7.3,27.5-10.8c0.3-0.1,0.2-6.8,0.2-6.9c0,0,0,0,0,0.1
								c0.1-5.5,0.1-10.9,0.1-16.4c0-5.5,0-10.9-0.1-16.4C1031.6,403.9,1031.2,397.9,1031.4,397.8"/>
							<path d="M607,33.9h-51c-2.1,0-3.8,1.7-3.8,3.8v81.2h58.7V37.7C610.8,35.6,609.1,33.9,607,33.9"/>
							<path d="M607,24.6h-51c-7.2,0-13.1,5.9-13.1,13.1v81.2h9.3V37.7c0-2.1,1.7-3.8,3.8-3.8h51c2.1,0,3.8,1.7,3.8,3.8v81.2h9.3
								V37.7C620.1,30.5,614.2,24.6,607,24.6"/>
							<path d="M936.3,946.9c-0.9,0.2-1.8,0.5-2.7,0.7c0.6,2,1.2,4.1,1.8,6.1c0.3,1,0.6,1.9,0.9,2.9c0,0.8,0.3,1.1,0.8,1.1
								c0,0,0,0,0,0c-0.1-0.7-0.2-1.4-0.3-2.1c0,0.1,0,0.1,0,0.2c0-0.1,0-0.2,0-0.4C936.5,952.7,936.4,949.8,936.3,946.9 M924.9,894
								c0,0.1,0.1,0.2,0.1,0.3c0,0,0,0,0,0C924.9,894.2,924.9,894.1,924.9,894 M670.6,253.7L645,298.1c8.9,22.4,17.8,44.8,26.7,67.1
								c9.9,25,19.9,50,29.8,75c5,12.7,10.1,25.3,15.1,38c1.2,2.9,2.6,10.2,5.1,11.7c0.7,0.4,2,0.5,2.9,1c1.3,0.7,2.5,1.8,3.6,2.8
								c14.6,13,25.4,31.2,35.2,47.8c12.6,21.3,25.7,42.2,36.2,64.7c10.7,23,19.7,46.8,29.5,70.3c10.3,24.9,21,49.6,31.8,74.2
								c10.6,24.2,21.2,48.3,31.8,72.5c5.4,12.4,10.9,24.8,16.3,37.2c4.9,11.1,9.2,22.9,15.8,33.1c0,0,0.1,0.1,0.1,0.1
								c-8.8-22.1-17.5-44.2-26.3-66.2C857.6,724.6,816.8,621.8,775.9,519C740.8,430.5,705.7,342.1,670.6,253.7"/>
							<path d="M933.7,947.6c0.9-0.2,1.8-0.5,2.7-0.7c0,2.9,0.2,5.8,0.5,8.6c0,0.1,0,0.2,0,0.4c0-0.1,0-0.1,0-0.2
								c0.1,0.7,0.2,1.4,0.3,2.1c0,0,0,0,0,0c-0.5,0-0.7-0.4-0.8-1.1c-0.3-0.9-0.6-1.9-0.9-2.9C934.9,951.7,934.3,949.6,933.7,947.6
								 M924.9,894.3c0-0.1-0.1-0.2-0.1-0.3C924.9,894.1,924.9,894.2,924.9,894.3C925,894.3,925,894.3,924.9,894.3 M681.5,234.8
								l-10.9,18.9c35.1,88.4,70.2,176.8,105.3,265.3c40.8,102.8,81.7,205.7,122.5,308.5c8.8,22.1,17.5,44.2,26.3,66.2
								c0,0,0-0.1-0.1-0.1c-6.6-10.2-10.9-22-15.8-33.1c-5.4-12.4-10.9-24.8-16.3-37.2c-10.6-24.2-21.2-48.3-31.8-72.5
								c-10.8-24.7-21.5-49.4-31.8-74.2c-9.7-23.4-18.8-47.2-29.5-70.3c-10.4-22.5-23.6-43.4-36.2-64.7
								c-9.8-16.6-20.6-34.8-35.2-47.8c-1.1-1-2.3-2-3.6-2.8c-0.9-0.5-2.1-0.5-2.9-1c-2.5-1.5-4-8.8-5.1-11.7
								c-5-12.7-10.1-25.3-15.1-38c-9.9-25-19.9-50-29.8-75c-8.9-22.4-17.8-44.8-26.7-67.1L634.1,317c10.1,25.4,20.1,50.7,30.2,76.1
								c10.1,25.3,20.1,50.6,30.2,76c4.9,12.3,9.8,24.7,14.7,37.1c2.3,5.9,4.7,11.7,7,17.6c1.2,3.1,2.8,10.8,5.5,12.6
								c0.6,0.4,2.1,0.6,2.9,1c1.3,0.7,2.5,1.8,3.6,2.8c0.6,0.5,1.1,1,1.6,1.5c2.4,2.4,4.7,4.9,6.8,7.5c6.2,7.4,12,15.1,17.2,23.2
								c0.3,0.5,0.6,1,1,1.5c6.4,10.1,12.3,20.5,18.4,30.8c6.3,10.4,12.6,20.8,18.2,31.5c11.7,22.4,21,46.1,30.5,69.5
								c10,24.6,20.5,49.1,31,73.4c11.8,27.2,23.8,54.3,35.6,81.4c6.1,13.9,12.2,27.8,18.3,41.8c2.6,5.9,5,12,7.7,18
								c0.1,4.3,0.2,8.2,0.2,9c0,5.5,0,10.9,0.1,16.4c0,1.1-0.5,6.2,0.2,6.8c2.1,1.6,6.1,3.6,7.7,5.7c1.4,1.8,1.8,5.5,2.5,7.7
								c1,3.2,1.9,6.3,2.9,9.5c1.9,6.3,3.8,12.7,5.7,19c0.5,1.5,1.5,8.6,2.9,9.5c0.1,0.1,0.3,0.1,0.6,0.1c2,0,7.4-1.8,8.6-2.1
								c2.4-0.5,4.3-0.8,4.8-3.2c0,0.1,0,0.2,0,0.3c0-0.1,0-0.3,0-0.4c0-0.1,0-0.2,0.1-0.4c1-7.2,0.2-15.1,0.2-22.3
								c0-7.2,1-14.9-0.2-22.1c0-0.3,0-0.7,0-1c0,0.1-0.1,0.2-0.1,0.3c-0.4-2-0.9-4-1.8-5.9c-0.6-1.4-1.2-2.8-1.8-4.2
								c0.6-0.7,1-1.6,1.2-2.7c0,0,0,0.1,0,0.1c0-0.1,0-0.1,0-0.2c0.1-0.6,0.2-1.3,0.2-2.1c0.2-12.7,0.2-25.5,0-38.2
								c0-1.8,0.4-4.3-0.2-6.1c-0.1-0.7-0.5-1.4-1-1.9c-0.4-0.4-0.8-0.5-1.3-0.5c-0.2,0-0.4,0-0.6,0.1c-0.7-0.9,0-4.2-0.9-4.8
								c0.1,0.1-3.4,2.3-6.1,4c-0.3-4.3-0.8-8.6-1.6-12.7c-0.6-3-2.5-6.4-3.7-9.3c-1.2-3.1-2.5-6.2-3.7-9.3
								c-2.7-6.8-5.4-13.6-8.1-20.4c-5-12.7-10.1-25.4-15.1-38.1c-20.5-51.7-41.1-103.4-61.6-155.2c-13.1-33-26.2-66-39.3-99
								c-5.1-12.8-10.1-25.5-15.2-38.3c-22.7-57.1-45.3-114.1-68-171.2C708.6,302.9,695,268.9,681.5,234.8"/>
							<path d="M225.7,936.1c0,2.8-0.1,5.6-0.4,8.4c0,0.2,0,0.4,0,0.5c0-0.1,0-0.2,0-0.3c-0.1,0.6-0.2,1.3-0.3,1.9
								c0.1,0,0.2,0,0.3,0c0.6,0,0.9-0.6,0.7-1.9c0.2-0.6,0.4-1.3,0.6-1.9c0.6-2,1.2-4,1.8-6.1C227.5,936.6,226.6,936.4,225.7,936.1
								 M482.5,265.4c-14.2,35.7-28.3,71.4-42.5,107.1C399.2,475.3,358.4,578.2,317.5,681c-20.5,51.7-41.1,103.4-61.6,155.2
								c-5,12.7-10.1,25.4-15.1,38.1c-1.2,3.1-2.5,6.2-3.7,9.3c0,0,0.1,0,0.1,0c0-0.4,0.1-0.6,0.2-0.8c7.5-11.6,12.3-25.1,17.8-37.6
								c6.1-13.9,12.2-27.8,18.3-41.8c11.9-27.1,23.8-54.3,35.6-81.4c10.6-24.4,21-48.8,31-73.4c9.5-23.4,18.8-47.1,30.5-69.5
								c5.6-10.8,12-21.1,18.2-31.5c6.5-10.7,12.5-21.7,19.4-32.2c5.2-8.1,11-15.8,17.2-23.2c2.6-3.1,5.4-6.3,8.5-9
								c1.1-1,2.3-2,3.6-2.8c0.8-0.4,2.2-0.6,2.9-1c2.6-1.8,4.2-9.5,5.5-12.6c2.3-5.9,4.7-11.7,7-17.6c4.9-12.3,9.8-24.7,14.7-37.1
								c10.1-25.3,20.1-50.6,30.2-76c3.5-8.7,6.9-17.4,10.4-26.1L482.5,265.4"/>
							<path d="M225.3,944.5c0.3-2.8,0.4-5.6,0.4-8.4c0.9,0.2,1.8,0.5,2.7,0.7c-0.6,2-1.2,4-1.8,6.1c-0.2,0.6-0.4,1.3-0.6,1.9
								c0.1,1.3-0.1,1.9-0.7,1.9c-0.1,0-0.2,0-0.3,0c0.1-0.6,0.2-1.3,0.3-1.9c0,0.1,0,0.2,0,0.3
								C225.3,944.9,225.3,944.7,225.3,944.5 M471.6,246.5c-28.5,71.8-57,143.5-85.5,215.3c-40.8,102.8-81.7,205.6-122.5,308.5
								c-11.6,29.1-23.1,58.2-34.7,87.3c-1.4,3.7-3.3,7.2-3.9,11.1c-0.4,3-0.6,6.1-0.9,9.1c-0.1,0.6-0.1,1.3-0.2,1.9
								c-2.7-1.8-6.4-4.3-6.4-4.3c-0.8,0.4-0.4,4-0.9,4.9c-0.2-0.1-0.4-0.1-0.6-0.1c-0.5,0-0.9,0.2-1.3,0.5c-0.5,0.5-0.9,1.1-1,1.9
								c-0.6,1.8-0.2,4.3-0.2,6.1c-0.2,12.7-0.2,25.5,0,38.2c0,0.8,0.1,1.6,0.2,2.2c0,0,0,0.1,0,0.1c0,0,0-0.1,0-0.1
								c0.2,1.1,0.6,2,1.2,2.7c-0.4,1.1-0.9,2.2-1.4,3.3c-1,2.3-1.6,4.6-2,7c-0.1-0.2-0.2-0.3-0.2-0.5c0,0.7,0,1.4,0,2.1
								c-0.8,6-0.4,12.2-0.3,18.4c0,0.9,0,1.8,0,2.7c0,7.2-0.8,15.1,0.2,22.3c0,0.1,0,0.2,0.1,0.3c0,0.2,0,0.3,0,0.5
								c0-0.1,0-0.2,0-0.3c0.6,2.5,2.3,2.7,4.8,3.2c1.5,0.3,6.2,2.2,8.4,2.2c0.1,0,0.2,0,0.4,0c0.2,0,0.3-0.1,0.5-0.1
								c0.2-0.1,0.3-0.4,0.4-0.8c0.3-1,0.6-2.5,0.7-2.9c0.6-1.9,1.2-3.8,1.7-5.7c1.8-6,3.6-12,5.4-18.1c1-3.2,1.9-6.3,2.9-9.5
								c0.7-2.4,1.2-6.6,2.7-8.6c1.5-2,5.9-4.2,7.8-5.7c0.4-0.3,0.2-6.8,0.2-6.8c0,0,0,0,0,0c0-4.1,0.1-8.2,0.1-12.3
								c0-1.4,0-2.7,0-4.1c0-2.9,0-5.7,0-8.6c2-4.6,3.9-9.3,5.9-13.9c5.4-12.4,10.9-24.8,16.3-37.2c10.6-24.2,21.2-48.3,31.8-72.5
								c10.8-24.7,21.5-49.4,31.8-74.3c9.7-23.4,18.8-47.2,29.5-70.3c10.4-22.5,23.6-43.4,36.2-64.7c9.8-16.6,20.6-34.8,35.2-47.8
								c1.1-1,2.3-2,3.6-2.8c0.9-0.5,2.1-0.5,2.9-1c2.5-1.5,4-8.8,5.1-11.7c5-12.7,10.1-25.3,15.1-38c9.9-25,19.9-50,29.8-75
								c9.5-24,19.1-48.1,28.6-72.1l-10.9-18.9c-3.5,8.7-6.9,17.4-10.4,26.1c-10.1,25.3-20.1,50.6-30.2,76
								c-4.9,12.3-9.8,24.7-14.7,37.1c-2.3,5.9-4.7,11.7-7,17.6c-1.2,3.1-2.8,10.8-5.5,12.6c-0.6,0.4-2.1,0.6-2.9,1
								c-1.3,0.7-2.5,1.8-3.6,2.8c-3.1,2.7-5.8,5.9-8.5,9c-6.2,7.4-12,15.1-17.2,23.2c-6.8,10.5-12.9,21.5-19.4,32.2
								c-6.3,10.4-12.6,20.8-18.2,31.5c-11.7,22.4-21,46.1-30.5,69.5c-10,24.6-20.4,49.1-31,73.4c-11.8,27.2-23.8,54.3-35.6,81.4
								c-6.1,13.9-12.2,27.8-18.3,41.8c-5.5,12.6-10.3,26.1-17.8,37.6c-0.1,0.1-0.2,0.4-0.2,0.8c0,0-0.1,0-0.1,0
								c1.2-3.1,2.5-6.2,3.7-9.3c5-12.7,10.1-25.4,15.1-38.1c20.5-51.7,41.1-103.4,61.6-155.2c40.8-102.8,81.7-205.6,122.5-308.5
								c14.2-35.7,28.3-71.4,42.5-107.1L471.6,246.5"/>
							<path class="st3" d="M675.4,128.2H471c-11.9,0-22.5,6.1-28.5,16.4c-5.9,10.3-5.9,22.6,0,32.9l102.2,177.1
								c5.9,10.3,16.6,16.4,28.5,16.4c11.9,0,22.5-6.1,28.5-16.4l102.2-177.1c5.9-10.3,5.9-22.6,0-32.9
								C698,134.3,687.3,128.2,675.4,128.2"/>
							<path d="M573.2,371c-11.9,0-22.5-6.1-28.5-16.4L442.5,177.5c-5.9-10.3-5.9-22.6,0-32.9c5.9-10.3,16.6-16.4,28.5-16.4h204.5
								c11.9,0,22.5,6.1,28.5,16.4c5.9,10.3,5.9,22.6,0,32.9L601.7,354.6C595.7,364.9,585.1,371,573.2,371 M675.4,118.9h-55.4h-9.3
								h-58.7h-9.3H471c-15.2,0-28.9,7.9-36.5,21.1c-7.6,13.2-7.6,29,0,42.1l37.2,64.4l10.9,18.9l25.7,44.4l10.9,18.9l17.6,30.5
								c7.6,13.2,21.3,21.1,36.5,21.1s28.9-7.9,36.5-21.1l24.4-42.2l10.9-18.9l25.7-44.4l10.9-18.9l30.4-52.7
								c7.6-13.2,7.6-29,0-42.1C704.3,126.8,690.7,118.9,675.4,118.9"/>
						</g>
					</g>
				</g>
			</g>
		</g>
	</g>
</g>
<g id="Layer_2">
	<text transform="matrix(1 0 0 1 980.2003 990.292)" class="st4 st5">TM</text>
</g>
</svg>
